<svg xmlns="http://www.w3.org/2000/svg" width="351.321" height="178.89" viewBox="0 0 351.321 178.89">
  <g id="tepuia-logo-white" transform="translate(0 0)">
    <g id="Group_6" data-name="Group 6" transform="translate(0 -0.001)">
      <path id="Path_6" data-name="Path 6" d="M20.469,118.577c5.617-3.97,12.168-7.666,17.843-13.893,3.82-4.193,6.963-7.32,7.441-14.583.538-8.155-3.573-10.528-6.124-16.135a27.884,27.884,0,0,1-2.551-7.939c-.9-7.947.829-15.219,2.587-22.779,8.905-3.547,17.65-7.254,23.823-13.54a33.209,33.209,0,0,1,6.134,8.2c1.374,2.631,3.363,7.157,3.536,10.4a48.162,48.162,0,0,1-.743,9.059,42.18,42.18,0,0,1-2.828,9.98c-2.655,5.8-8.028,9.967-8.978,15.86,4.62-.069,7.86-1.519,12.034-2.034-.989-6.965.154-12.749,1.3-17.917,1.1-4.974,1.8-9.522,2.6-14.432.423-2.6,1.05-5.386.777-7.871a16.842,16.842,0,0,0-1.4-4.738c-2.871-6.4-6.3-11.891-11.145-15.976-2.2-1.853-7.047-1.33-11.006-.78A43.3,43.3,0,0,0,42.5,23.028a33.875,33.875,0,0,0-3.153,1.71c-5.4,3.174-8.631,14.322-10.7,29.338-.915,6.641-.171,14.582-2.687,20.724C21.349,86.059,8.619,91.842,4.014,102.593.25,111.379-.3,121.46.116,130.891a95.869,95.869,0,0,0,2.627,19.628,61.72,61.72,0,0,0,3.195,9.3c1.572,3.6,5.428,8.8,5.686,8.319-1.629-5.046-2.173-10.78-2.841-15.92a48.442,48.442,0,0,1,.294-12.4C10.174,131.582,13.494,123.508,20.469,118.577Z" transform="translate(0 10.724)" fill="#fff" fill-rule="evenodd"/>
      <path id="Path_7" data-name="Path 7" d="M38.68,8.313c1.453-.451,1.367-4.095,1.921-5.5,1.32-.538,2.514-1.317,3.956-1.28a14.7,14.7,0,0,1,1.525,6.646c-.714.562-2.047.506-2.556,1.275.278,6.743-.852,15.852-1.34,22.661,1.052-.37,1.887-3.654,2.348-5.321C46.716,18.918,50.077,8.12,45.837,0A16.473,16.473,0,0,0,39.19,1.781,25.67,25.67,0,0,0,38.68,8.313Z" transform="translate(23.792 0.001)" fill="#fff" fill-rule="evenodd"/>
      <path id="Path_8" data-name="Path 8" d="M38.787,6.137c-.407,1.9.278,6.827.627,10.519.336,3.568.356,7.165.748,9.576.175,1.071.179,1.87,1.275,2.556,1.029-6.9,1.123-14.735,1.049-22.741C41.846,5.679,39.263,5.038,38.787,6.137Z" transform="translate(23.811 3.403)" fill="#fff" fill-rule="evenodd"/>
      <path id="Path_9" data-name="Path 9" d="M41.333,76.695c.212,1.681,1.517,3.729.587,5.407-.3.546-.808,1.065-1.168,1.587a8.856,8.856,0,0,1,3.519-.212c1.7.385,2.246,3.161,2.16,4.466,6.85-2.813,13.906-13.3,14.847-23.235.591-6.252-2.358-7.827-7.677-7.472-1.585.107-3.914.538-4.326,1.325,3.094-.608,8.718-.491,9.526,2.443C59.583,63.84,54.462,72.585,41.333,76.695Z" transform="translate(25.098 34.638)" fill="#fff" fill-rule="evenodd"/>
      <path id="Path_10" data-name="Path 10" d="M48.323,78.046c-1.4-1.154-3.216-1.9-4.083-3.582a31.236,31.236,0,0,1,2.332-3.995c-3.671-.166-6.952-1.1-10.5-1.382a26.882,26.882,0,0,1-2.56,3.574A69.606,69.606,0,0,1,15.7,87.426c8.4,1.294,19,.021,26.228-.955a46.258,46.258,0,0,0,6.268-1.136c-1.378-1.133-2.786-2.01-2.686-3.715C45.611,79.862,47.39,79.03,48.323,78.046Z" transform="translate(9.667 41.897)" fill="#fff" fill-rule="evenodd"/>
      <path id="Path_11" data-name="Path 11" d="M42.291,71.789a1.9,1.9,0,0,0-1.2-1.86,2.349,2.349,0,0,0-.465-.155,1.974,1.974,0,0,0-2.519,2.007c.121,1.582,1.777,2.054,3.061,1.433A1.844,1.844,0,0,0,42.291,71.789Zm-1.285.355a.9.9,0,0,1-.685.393,1.2,1.2,0,0,1-1.089-.4.936.936,0,0,1,.38-1.353A1.155,1.155,0,0,1,41,70.89,1,1,0,0,1,41.006,72.144Z" transform="translate(23.465 42.337)" fill="#fff" fill-rule="evenodd"/>
      <path id="Path_12" data-name="Path 12" d="M37.635,75.371c2.348-.137,2.27-5-.763-3.835A1.977,1.977,0,0,0,37.635,75.371Zm.606-2.973a1.046,1.046,0,0,1-.071,1.592,1.074,1.074,0,0,1-.85.217,1.008,1.008,0,0,1-.284-.073.972.972,0,0,1-.583-.716C36.252,72.451,37.516,71.876,38.241,72.4Z" transform="translate(21.888 43.33)" fill="#fff" fill-rule="evenodd"/>
      <path id="Path_13" data-name="Path 13" d="M41.638,77.66c1.049.052,1.92-1.949,1.163-2.682l-.016-.015C41.7,73.959,40.108,77.584,41.638,77.66Z" transform="translate(25.255 45.418)" fill="#fff" fill-rule="evenodd"/>
      <path id="Path_14" data-name="Path 14" d="M37.86,77.968a1.6,1.6,0,0,0,1.343-.039.753.753,0,0,0,.3-.375c.569-1.506-2.965-1.954-2.93-.7C36.587,77.32,37.495,77.827,37.86,77.968Z" transform="translate(22.524 46.233)" fill="#fff" fill-rule="evenodd"/>
      <path id="Path_15" data-name="Path 15" d="M42.693,79.814a.988.988,0,0,0,.12,1.362,2.22,2.22,0,0,0,2.274-.286,1.228,1.228,0,0,0,.583-1C45.613,78.248,43.339,79.009,42.693,79.814Z" transform="translate(26.162 47.927)" fill="#fff" fill-rule="evenodd"/>
      <path id="Path_16" data-name="Path 16" d="M41.285,81.43a1.063,1.063,0,0,0-.231-.472c-.3-.373-.769-.344-1.205-.343-.734,0-2.12.3-1.957,1.327C38.117,83.372,41.516,82.739,41.285,81.43Z" transform="translate(23.329 48.959)" fill="#fff" fill-rule="evenodd"/>
      <path id="Path_17" data-name="Path 17" d="M77.542,94.011c8.718-8.183,9.615-11.36,10.311-13.113.011-.026.021-.052.031-.076.029-.076.055-.147.078-.22a.168.168,0,0,0,.01-.026.187.187,0,0,1,.006-.026,4.158,4.158,0,0,0,.186-.965.329.329,0,0,0,0-.061,22.091,22.091,0,0,0-.213-4.759,73.775,73.775,0,0,0-4.193-14.393,1.509,1.509,0,0,0-.389.078C82.842,74.335,76.19,82.079,68,88.284c4.235,3.985.512,5.824-4.352,7.406-4.1,1.333-8.666,4.182-10.471.59-.419-1.314.233-2.07.252-3.157-10.618,2.026-23.164,3.975-35.776,2C14.3,97.32,8.026,106.256,7.38,112.963,38.512,117.438,67.052,103.858,77.542,94.011Z" transform="translate(4.545 36.453)" fill="#fff" fill-rule="evenodd"/>
      <g id="Group_5" data-name="Group 5" transform="translate(20.838 124.963)">
        <g id="Group_3" data-name="Group 3" transform="translate(38.1 25.906)">
          <path id="Path_18" data-name="Path 18" d="M38.315,114.531c1.134-.5,1-2.3,1.081-3.3a47.08,47.08,0,0,0-.036-8.9,33.791,33.791,0,0,0-.944-5.26c-.139-.532-.726-3.793-1.8-3-.612.451.994,4.736,1.409,9.093A112,112,0,0,1,38.315,114.531Z" transform="translate(-36.474 -93.949)" fill="#fff" fill-rule="evenodd"/>
        </g>
        <path id="Path_19" data-name="Path 19" d="M46.364,114.341c.583-7.624.619-16.555-1.223-23.392-.393-.934-1.346-.294-1.138.844a85.716,85.716,0,0,1,1.344,17.195C45.346,110.82,44.8,113,46.364,114.341Z" transform="translate(6.245 -70.167)" fill="#fff" fill-rule="evenodd"/>
        <path id="Path_20" data-name="Path 20" d="M58.691,84.09c-.259-2.009-1.5-5.294-.543-6.173,1.535,0,2,3.127,2.293,5.113,1.175,7.942.62,18.791-2.073,24.272a.464.464,0,0,1-.519.368c-.036-.3-.213-.17.008-.879C59.781,100.6,59.533,90.628,58.691,84.09Z" transform="translate(14.729 -77.917)" fill="#fff" fill-rule="evenodd"/>
        <path id="Path_21" data-name="Path 21" d="M53.067,84.867c0-.081-.024-.16-.036-.241a1.232,1.232,0,0,0-.162-.507.467.467,0,0,0-.467-.213.491.491,0,0,0-.339.3,16.3,16.3,0,0,0-.4,4.7c.04,1.76.082,3.518.165,5.276.231,4.891-.118,10.156,2.54,12.494C53.007,100.423,53.337,93.2,53.067,84.867Z" transform="translate(10.974 -74.234)" fill="#fff" fill-rule="evenodd"/>
        <path id="Path_22" data-name="Path 22" d="M29.871,96.849c-.1-.4-.32-.863-.727-.364-.559.687-.309,1.824-.286,2.589.029.97.06,1.939.118,2.907.142,2.319-.208,4.906,1.524,6.746l.139.026a40.184,40.184,0,0,1-.375-4.98c-.04-2.2-.108-4.408-.333-6.6A2.645,2.645,0,0,0,29.871,96.849Z" transform="translate(-3.111 -66.614)" fill="#fff" fill-rule="evenodd"/>
        <g id="Group_4" data-name="Group 4" transform="translate(11.868 29.4)">
          <path id="Path_23" data-name="Path 23" d="M22.312,108.12c.032.129.068.26.105.388a1.041,1.041,0,0,1-.587-.218c-.428-.344-.506-1.052-.68-1.543a14.591,14.591,0,0,1-.506-1.937,20.4,20.4,0,0,1-.4-4.061,15.723,15.723,0,0,1,.15-2.24c.1-.656.365-1.981,1.007-2.329a.613.613,0,0,1,.64.045,33.05,33.05,0,0,0-.4,3.969c-.044.821-.011,1.647.023,2.467A26.623,26.623,0,0,0,22.312,108.12Z" transform="translate(-20.24 -96.111)" fill="#fff" fill-rule="evenodd"/>
        </g>
        <path id="Path_24" data-name="Path 24" d="M14.627,119a86.64,86.64,0,0,1-1.7-18.328c.031-.958.087-1.916.179-2.871.06-.625-.048-2.047.624-2.38.842-.417.921.606.921,1.12,0,.834,0,1.668-.01,2.5-.011,1.616-.026,3.23-.021,4.846a93.555,93.555,0,0,0,.456,9.681C15.268,115.39,16.038,117.5,14.627,119Z" transform="translate(-12.896 -67.199)" fill="#fff" fill-rule="evenodd"/>
      </g>
    </g>
    <g id="Group_7" data-name="Group 7" transform="translate(115.127 29.174)">
      <path id="Path_25" data-name="Path 25" d="M72.4,19h31.442v7.585H92.215v78.058h-8.2V26.584H72.394V19Z" transform="translate(-72.394 -17.776)" fill="#fff"/>
      <path id="Path_26" data-name="Path 26" d="M97,19h25.572v7.585H105.2V57.9h15.538V65.49H105.2V97.055h17.374v7.585H97Z" transform="translate(-57.239 -17.776)" fill="#fff"/>
      <path id="Path_27" data-name="Path 27" d="M139.492,71.485v33.157h-8.2V19h15.66c9.421,0,15.66,5.995,15.66,15.416V55.825c0,9.787-6.239,15.66-15.538,15.66Zm7.585-7.585c4.4,0,7.341-3.059,7.341-8.075V34.415c0-4.772-2.936-7.831-7.462-7.831h-7.464V63.9h7.585Z" transform="translate(-36.116 -17.776)" fill="#fff"/>
      <path id="Path_28" data-name="Path 28" d="M165.688,19V90.326c0,4.893,3.061,7.952,7.464,7.952,4.649,0,7.462-3.059,7.462-7.952V19h8.2V90.326c0,9.665-6.486,15.538-15.66,15.538s-15.66-5.872-15.66-15.538V19Z" transform="translate(-19.982 -17.776)" fill="#fff"/>
      <path id="Path_29" data-name="Path 29" d="M193.246,104.642h-8.2V19h8.2Z" transform="translate(-3.01 -17.776)" fill="#fff"/>
      <path id="Path_30" data-name="Path 30" d="M221.421,105.108V71.828H206.495v33.278h-8.2V33.658c0-9.543,6.606-15.416,15.66-15.416s15.66,5.872,15.66,15.416v71.45ZM206.495,64.243h14.926V33.658c0-4.772-2.936-7.831-7.462-7.831s-7.464,3.059-7.464,7.831Z" transform="translate(5.151 -18.242)" fill="#fff"/>
    </g>
    <g id="Group_9" data-name="Group 9" transform="translate(126.282 132.289)">
      <g id="Group_8" data-name="Group 8">
        <path id="Path_31" data-name="Path 31" d="M85.491,94.1l-3.038-4.523H81.5v4.407H79.3V82.47H82.87c2.571,0,4.122,1.218,4.122,3.456a3.21,3.21,0,0,1-2.337,3.238l3.1,4.523ZM82.7,84.239H81.485v3.655H82.6c1.369,0,2.22-.651,2.22-1.852C84.823,84.891,84.088,84.239,82.7,84.239Z" transform="translate(-79.297 -82.253)" fill="#fff"/>
        <path id="Path_32" data-name="Path 32" d="M91.372,94.287c-3.272,0-5.392-2.4-5.392-5.959s2.136-5.992,5.425-5.992c3.3,0,5.391,2.4,5.391,5.959S94.677,94.287,91.372,94.287Zm.016-10.116c-1.97,0-3.156,1.619-3.156,4.14s1.184,4.14,3.156,4.14,3.172-1.619,3.172-4.14S93.358,84.172,91.388,84.172Z" transform="translate(-75.181 -82.336)" fill="#fff"/>
        <path id="Path_33" data-name="Path 33" d="M99.588,84.39v9.6h-2.2v-9.6H93.913V82.47h8.947l.317,1.92Z" transform="translate(-70.295 -82.253)" fill="#fff"/>
        <path id="Path_34" data-name="Path 34" d="M106.192,94.287c-3.272,0-5.392-2.4-5.392-5.959s2.136-5.992,5.425-5.992c3.3,0,5.391,2.4,5.391,5.959S109.5,94.287,106.192,94.287Zm.018-10.116c-1.97,0-3.156,1.619-3.156,4.14s1.184,4.14,3.156,4.14,3.17-1.619,3.17-4.14S108.178,84.172,106.21,84.172Z" transform="translate(-66.053 -82.336)" fill="#fff"/>
        <path id="Path_35" data-name="Path 35" d="M115.639,94.1l-3.04-4.523h-.95v4.407h-2.2V82.47h3.573c2.571,0,4.124,1.218,4.124,3.456a3.212,3.212,0,0,1-2.337,3.238l3.1,4.523Zm-2.787-9.865h-1.218v3.655h1.118c1.369,0,2.22-.651,2.22-1.852C114.971,84.891,114.236,84.239,112.851,84.239Z" transform="translate(-60.729 -82.253)" fill="#fff"/>
        <path id="Path_36" data-name="Path 36" d="M121,94.188a4.261,4.261,0,0,1-4.608-4.657V82.47h2.2v6.944c0,1.753.8,2.855,2.421,2.855,1.637,0,2.455-1.036,2.455-2.8v-7h2.22v7.011A4.337,4.337,0,0,1,121,94.188Z" transform="translate(-56.448 -82.253)" fill="#fff"/>
        <path id="Path_37" data-name="Path 37" d="M128.136,82.439h2.353l4.224,11.284-2.2.4-1.1-3.038h-4.373L126,94.007H123.81Zm-.5,6.845h3.154l-1.571-4.457Z" transform="translate(-51.882 -82.273)" fill="#fff"/>
        <path id="Path_38" data-name="Path 38" d="M133.319,92.881l-1.152-.284.769-4.507h2.286Z" transform="translate(-46.735 -78.792)" fill="#fff"/>
        <path id="Path_39" data-name="Path 39" d="M146.513,93.988l-5.425-7.929v7.929h-2.054V82.47h2.086l5.176,7.545V82.47h2.054V93.988Z" transform="translate(-42.505 -82.253)" fill="#fff"/>
        <path id="Path_40" data-name="Path 40" d="M147.236,93.988V82.47h6.695v1.87h-4.507v2.737h3.471l.3,1.853h-3.773v3.188H154.1v1.87Z" transform="translate(-37.454 -82.253)" fill="#fff"/>
        <path id="Path_41" data-name="Path 41" d="M165.785,94.032h-2.1l-2.555-8.38-2.553,8.38h-2.088l-3.22-11.218,2.3-.417,2.17,8.246,2.4-8.13h2.22l2.4,8.13,2.1-8.13h2.22Z" transform="translate(-33.739 -82.298)" fill="#fff"/>
        <path id="Path_42" data-name="Path 42" d="M167.85,93.988V92.369l5.959-8.079h-5.425l-.284-1.82h8.4v1.619l-5.959,8.079h5.824l.284,1.82Z" transform="translate(-24.757 -82.253)" fill="#fff"/>
        <path id="Path_43" data-name="Path 43" d="M175.576,93.988V82.47h6.695v1.87h-4.507v2.737h3.471l.3,1.853h-3.773v3.188h4.675v1.87Z" transform="translate(-19.999 -82.253)" fill="#fff"/>
        <path id="Path_44" data-name="Path 44" d="M185.85,82.439H188.2l4.224,11.284-2.2.4-1.1-3.038h-4.373l-1.036,2.922h-2.188Zm-.5,6.845H188.5l-1.571-4.457Z" transform="translate(-16.336 -82.273)" fill="#fff"/>
        <path id="Path_45" data-name="Path 45" d="M190.17,93.988V82.47h2.22v9.564h3.839l.3,1.952h-6.36Z" transform="translate(-11.011 -82.253)" fill="#fff"/>
        <path id="Path_46" data-name="Path 46" d="M199.813,82.439h2.353l4.224,11.284-2.2.4-1.1-3.038h-4.373l-1.036,2.922h-2.188Zm-.5,6.845h3.154L200.9,84.827Z" transform="translate(-7.736 -82.273)" fill="#fff"/>
        <path id="Path_47" data-name="Path 47" d="M211.818,93.988l-5.425-7.929v7.929H204.34V82.47h2.086l5.176,7.545V82.47h2.054V93.988Z" transform="translate(-2.283 -82.253)" fill="#fff"/>
        <path id="Path_48" data-name="Path 48" d="M216.2,93.988H212.54V82.47H216.2c4.006,0,6.076,2.354,6.076,5.743C222.271,91.635,220.119,93.988,216.2,93.988Zm-.018-9.7h-1.435v7.879h1.4c2.421,0,3.872-1.236,3.872-3.94C220.018,85.576,218.483,84.29,216.179,84.29Z" transform="translate(2.767 -82.253)" fill="#fff"/>
      </g>
    </g>
  </g>
</svg>
